<svg width="157" height="32" viewBox="0 0 157 32" fill="none" xmlns="http://www.w3.org/2000/svg">
<path d="M16 4L1 12L16 20L31 12L16 4Z" stroke="#53A9AD" stroke-width="2" stroke-miterlimit="10" stroke-linecap="round" stroke-linejoin="round"/>
<path d="M7 15.2V22C7 24.2 11 27 16 27C21 27 25 24.2 25 22V15.2" stroke="#53A9AD" stroke-width="2" stroke-miterlimit="10" stroke-linecap="round" stroke-linejoin="round"/>
<path d="M31 12V25" stroke="#53A9AD" stroke-width="2" stroke-miterlimit="10" stroke-linecap="round" stroke-linejoin="round"/>
<path d="M52 21.88V25H38.992V8.2H51.688V11.32H42.856V14.968H50.656V17.992H42.856V21.88H52ZM55.0936 8.2H58.9816V21.832H67.4056V25H55.0936V8.2ZM82.5859 21.88V25H69.5779V8.2H82.2739V11.32H73.4419V14.968H81.2419V17.992H73.4419V21.88H82.5859ZM96.7435 21.4H88.9435L87.4555 25H83.4715L90.9595 8.2H94.7995L102.312 25H98.2315L96.7435 21.4ZM95.5195 18.448L92.8555 12.016L90.1915 18.448H95.5195ZM114.759 25L111.519 20.32H111.327H107.943V25H104.055V8.2H111.327C112.815 8.2 114.103 8.448 115.191 8.944C116.295 9.44 117.143 10.144 117.735 11.056C118.327 11.968 118.623 13.048 118.623 14.296C118.623 15.544 118.319 16.624 117.711 17.536C117.119 18.432 116.271 19.12 115.167 19.6L118.935 25H114.759ZM114.687 14.296C114.687 13.352 114.383 12.632 113.775 12.136C113.167 11.624 112.279 11.368 111.111 11.368H107.943V17.224H111.111C112.279 17.224 113.167 16.968 113.775 16.456C114.383 15.944 114.687 15.224 114.687 14.296ZM137.111 8.2V25H133.919L125.543 14.8V25H121.703V8.2H124.919L133.271 18.4V8.2H137.111ZM151.79 25L148.55 20.32H148.358H144.974V25H141.086V8.2H148.358C149.846 8.2 151.134 8.448 152.222 8.944C153.326 9.44 154.174 10.144 154.766 11.056C155.358 11.968 155.654 13.048 155.654 14.296C155.654 15.544 155.35 16.624 154.742 17.536C154.15 18.432 153.302 19.12 152.198 19.6L155.966 25H151.79ZM151.718 14.296C151.718 13.352 151.414 12.632 150.806 12.136C150.198 11.624 149.31 11.368 148.142 11.368H144.974V17.224H148.142C149.31 17.224 150.198 16.968 150.806 16.456C151.414 15.944 151.718 15.224 151.718 14.296Z" fill="#53A9AD"/>
</svg>
