<svg width="545" height="644" viewBox="0 0 545 644" fill="none" xmlns="http://www.w3.org/2000/svg">
<g clip-path="url(#clip0)">
<path d="M535.432 631.163C532.35 635.319 528.528 638.871 524.159 641.643C523.23 642.232 522.277 642.788 521.306 643.302H498.471C498.744 642.754 499.01 642.198 499.267 641.643C506.347 626.697 508.567 609.907 505.616 593.634C502.664 577.361 494.688 562.422 482.81 550.918C496.612 555.183 509.37 563.497 517.714 575.288C521.769 581.03 524.653 587.515 526.2 594.372C527.579 580.658 525.387 566.82 519.838 554.204C531.044 563.323 539.771 575.81 543.097 589.866C546.423 603.931 544.009 619.538 535.432 631.163Z" fill="#F0F0F0"/>
<path d="M544.683 644H330.894V642.253H545L544.683 644Z" fill="#3F3D56"/>
<path d="M256.101 218.447C256.101 250.509 244.903 277.882 223.594 298.253C208.472 312.715 185.18 332.986 185.18 354.418V372.15H114.26V354.418C114.26 332.762 90.8764 312.45 75.8462 298.253C55.0179 278.596 43.3387 249.364 43.3387 218.447V217.792C43.4302 189.572 54.7236 162.544 74.7348 142.652C94.7461 122.761 121.836 111.635 150.047 111.722C178.259 111.809 205.28 123.101 225.168 143.116C245.057 163.13 256.183 190.227 256.101 218.447Z" fill="#53A9AD"/>
<path d="M185.179 374.64C184.52 374.64 183.887 374.377 183.42 373.911C182.953 373.444 182.691 372.811 182.691 372.15V354.415C182.691 333.568 203.245 314.106 218.253 299.896C219.498 298.716 220.71 297.573 221.872 296.457C242.634 276.602 253.608 249.628 253.608 218.449C253.608 160.176 207.975 114.528 149.722 114.528H149.428C122.013 114.559 95.7257 125.447 76.3132 144.811C56.9007 164.175 45.9425 190.44 45.8347 217.864V218.444C45.8347 248.979 57.3968 277.409 77.5582 296.447C78.5793 297.412 79.6402 298.405 80.7294 299.425C95.9313 313.662 116.751 333.16 116.751 354.416V372.15C116.751 372.811 116.489 373.444 116.022 373.911C115.556 374.377 114.923 374.64 114.263 374.64C113.603 374.64 112.97 374.377 112.503 373.911C112.037 373.444 111.774 372.811 111.774 372.15V354.415C111.774 335.319 91.8668 316.673 77.3276 303.054C76.2336 302.03 75.1715 301.033 74.1416 300.063C52.9898 280.089 40.8578 250.341 40.8578 218.445V217.848C41.0237 158.069 89.7019 109.547 149.42 109.547H149.728C178.449 109.397 206.054 120.667 226.468 140.877C246.883 161.087 258.435 188.581 258.585 217.311C258.587 217.69 258.587 218.07 258.585 218.449C258.585 251.02 247.079 279.239 225.312 300.055C224.144 301.173 222.927 302.325 221.674 303.511C207.324 317.1 187.665 335.71 187.665 354.415V372.15C187.665 372.811 187.403 373.444 186.937 373.911C186.47 374.377 185.837 374.64 185.177 374.64H185.179Z" fill="#3F3D56"/>
<path d="M173.361 406.581H126.081C124.981 406.581 123.926 406.144 123.148 405.366C122.37 404.588 121.933 403.532 121.933 402.432C121.933 401.332 122.37 400.276 123.148 399.498C123.926 398.72 124.981 398.283 126.081 398.283H173.361C174.461 398.283 175.516 398.72 176.294 399.498C177.072 400.276 177.508 401.332 177.508 402.432C177.508 403.532 177.072 404.588 176.294 405.366C175.516 406.144 174.461 406.581 173.361 406.581Z" fill="#53A9AD"/>
<path d="M154.805 434.377H144.629C141.095 434.38 137.627 433.418 134.597 431.597C134.148 431.335 133.801 430.93 133.61 430.446C133.419 429.962 133.396 429.428 133.545 428.93C133.682 428.418 133.984 427.967 134.404 427.645C134.825 427.323 135.34 427.15 135.869 427.153H163.565C164.094 427.15 164.609 427.323 165.03 427.645C165.45 427.967 165.752 428.418 165.889 428.93C166.038 429.428 166.015 429.962 165.825 430.446C165.634 430.93 165.286 431.335 164.837 431.597C161.807 433.419 158.339 434.38 154.805 434.377Z" fill="#3F3D56"/>
<path d="M173.369 419.686L125.808 419.68L125.661 419.364C125.52 418.783 125.515 418.178 125.644 417.594C125.773 417.011 126.034 416.464 126.407 415.997C126.785 415.518 127.267 415.131 127.816 414.865C128.366 414.599 128.968 414.462 129.578 414.463H169.856C170.466 414.462 171.069 414.599 171.618 414.865C172.168 415.131 172.65 415.518 173.027 415.998C173.397 416.458 173.657 416.997 173.788 417.573C173.919 418.149 173.917 418.747 173.783 419.323L173.708 419.643L173.369 419.686Z" fill="#3F3D56"/>
<path d="M39.7314 120.655C38.7288 120.656 37.76 120.292 37.0057 119.631L1.38852 88.5317C0.572601 87.8046 0.0764921 86.7848 0.008032 85.6938C-0.0604281 84.6029 0.304297 83.529 1.02291 82.7055C1.74153 81.8821 2.75597 81.3756 3.84581 81.2961C4.93565 81.2167 6.0128 81.5707 6.84319 82.2812L42.4603 113.381C43.0965 113.936 43.5481 114.673 43.7546 115.492C43.9612 116.311 43.9129 117.173 43.6162 117.964C43.3195 118.755 42.7886 119.437 42.0944 119.917C41.4002 120.398 40.5758 120.656 39.7314 120.655V120.655Z" fill="#E4E4E4"/>
<path d="M253.803 120.654C252.958 120.655 252.134 120.397 251.44 119.916C250.745 119.436 250.215 118.754 249.918 117.963C249.621 117.173 249.573 116.31 249.779 115.491C249.986 114.672 250.437 113.935 251.074 113.38L286.69 82.2778C287.52 81.5673 288.597 81.2133 289.687 81.2927C290.777 81.3722 291.792 81.8787 292.51 82.7021C293.229 83.5256 293.594 84.5995 293.525 85.6904C293.457 86.7813 292.961 87.8012 292.145 88.5283L256.527 119.628C255.774 120.29 254.805 120.654 253.803 120.654Z" fill="#E4E4E4"/>
<path d="M185.18 391.857H114.259C113.159 391.857 112.104 391.42 111.326 390.642C110.548 389.864 110.111 388.809 110.111 387.708C110.111 386.608 110.548 385.553 111.326 384.775C112.104 383.997 113.159 383.559 114.259 383.559H185.18C186.279 383.559 187.334 383.997 188.112 384.775C188.89 385.553 189.327 386.608 189.327 387.708C189.327 388.809 188.89 389.864 188.112 390.642C187.334 391.42 186.279 391.857 185.18 391.857Z" fill="#53A9AD"/>
<path d="M147.978 283.475L133.23 372.15H124.811L139.791 282.114C139.971 281.028 140.576 280.058 141.471 279.418C142.366 278.777 143.479 278.519 144.565 278.7C145.65 278.88 146.62 279.485 147.26 280.38C147.9 281.276 148.158 282.389 147.978 283.475Z" fill="#E6E6E6"/>
<path d="M176.322 372.15H167.902L153.154 283.475C152.974 282.389 153.232 281.276 153.872 280.38C154.512 279.485 155.482 278.88 156.567 278.7C157.653 278.519 158.766 278.777 159.661 279.418C160.556 280.058 161.161 281.028 161.341 282.114L176.322 372.15Z" fill="#E6E6E6"/>
<path d="M122.766 280.513C122.766 279.412 123.202 278.357 123.98 277.579C124.758 276.801 125.813 276.364 126.913 276.364H172.529C173.629 276.364 174.684 276.801 175.461 277.579C176.239 278.357 176.676 279.412 176.676 280.513C176.676 281.613 176.239 282.668 175.461 283.446C174.684 284.224 173.629 284.661 172.529 284.661H126.913C125.813 284.661 124.758 284.224 123.98 283.446C123.202 282.668 122.766 281.613 122.766 280.513Z" fill="#E6E6E6"/>
<path d="M149.721 79.241C148.621 79.241 147.566 78.8039 146.788 78.0258C146.01 77.2478 145.573 76.1925 145.573 75.0922V4.14874C145.573 3.04843 146.01 1.99318 146.788 1.21514C147.566 0.437098 148.621 0 149.721 0C150.821 0 151.876 0.437098 152.653 1.21514C153.431 1.99318 153.868 3.04843 153.868 4.14874V75.0922C153.868 76.1925 153.431 77.2478 152.653 78.0258C151.876 78.8039 150.821 79.241 149.721 79.241Z" fill="#E4E4E4"/>
<path d="M488.747 632.392H478.579L473.742 593.155H488.749L488.747 632.392Z" fill="#FEB8B8"/>
<path d="M491.341 642.253H458.551V641.838C458.551 638.452 459.895 635.205 462.289 632.811C464.682 630.417 467.928 629.072 471.312 629.071H491.341L491.341 642.253Z" fill="#2F2E41"/>
<path d="M411.491 632.057L401.667 629.429L407.125 590.273L421.624 594.151L411.491 632.057Z" fill="#FEB8B8"/>
<path d="M411.451 642.253L379.774 633.779L379.881 633.378C380.755 630.107 382.893 627.318 385.823 625.623C388.754 623.929 392.237 623.468 395.507 624.342L414.855 629.518L411.451 642.253Z" fill="#2F2E41"/>
<path d="M494.597 412.499L503.115 422.398L492.1 623.564H468.568L456.707 468.774L419.92 627.715L395.457 621.714L417.7 419.836L494.597 412.499Z" fill="#2F2E41"/>
<path d="M423.387 282.622L446.817 270.863L482.847 271.497L513.853 287.368L496.211 375.502L503.832 421.453C474.379 428.967 443.543 429.221 413.97 422.193L413.734 422.137C413.734 422.137 431.248 359.976 423.793 341.005L423.387 282.622Z" fill="#E6E6E6"/>
<path d="M491.169 235.652C491.143 228.62 488.329 221.885 483.344 216.926C478.359 211.968 471.612 209.19 464.582 209.203C457.552 209.216 450.814 212.019 445.848 216.996C440.882 221.973 438.092 228.718 438.092 235.75C438.092 242.782 440.882 249.527 445.848 254.504C450.814 259.481 457.552 262.284 464.582 262.297C471.612 262.31 478.359 259.532 483.344 254.574C488.329 249.615 491.143 242.881 491.169 235.848V235.652Z" fill="#FEB8B8"/>
<path d="M420.154 346.879C420.658 348.174 421.44 349.344 422.445 350.304C423.45 351.265 424.653 351.993 425.97 352.438C427.286 352.884 428.685 353.035 430.066 352.881C431.447 352.727 432.778 352.272 433.965 351.548L481.538 376.704L483.078 365.112L436.851 337.844C435.503 335.93 433.5 334.578 431.222 334.044C428.944 333.509 426.549 333.829 424.49 334.942C422.432 336.056 420.854 337.886 420.054 340.086C419.255 342.286 419.29 344.703 420.153 346.879H420.154Z" fill="#FEB8B8"/>
<path d="M483.55 348.883C482.775 350.037 481.756 351.006 480.565 351.724C479.375 352.441 478.042 352.889 476.659 353.035C475.277 353.181 473.88 353.023 472.565 352.57C471.251 352.118 470.052 351.382 469.053 350.416L417.127 364.551L417.579 349.833L469.232 336.413C470.966 334.841 473.216 333.96 475.556 333.937C477.896 333.913 480.164 334.749 481.929 336.287C483.694 337.824 484.833 339.956 485.132 342.277C485.431 344.599 484.868 346.95 483.55 348.884L483.55 348.883Z" fill="#FEB8B8"/>
<path d="M503.728 288.006L513.852 287.371C513.852 287.371 525.705 303.016 519.131 319.993C519.131 319.993 520.27 380.98 494.018 378.474C467.765 375.968 459.47 375.969 459.47 375.969L467.35 353.981L484.979 348.536C484.979 348.536 479.546 324.561 489.83 314.586L503.728 288.006Z" fill="#E6E6E6"/>
<path d="M430.624 287.47L429.193 280.133C429.193 280.133 408.091 279.635 403.919 311.623C403.919 311.623 384.943 359.493 403.543 365.657C422.142 371.821 442.602 365.657 442.602 365.657L441.062 344.545L420.598 340.369C420.598 340.369 431.17 326.687 425.413 314.819L430.624 287.47Z" fill="#E6E6E6"/>
<path d="M473.819 248.688C471.868 247.922 469.706 247.961 467.643 247.583C460.266 246.224 454.577 238.699 455.277 231.229C455.453 230.261 455.469 229.271 455.325 228.298C454.814 226.166 452.445 225.022 450.27 224.767C448.094 224.511 445.846 224.838 443.729 224.271C440.461 223.396 438.02 220.414 437.192 217.133C436.487 213.796 436.855 210.322 438.243 207.206L439.259 209.324C440.315 208.203 441.035 206.808 441.337 205.298C442.224 205.345 443.084 205.62 443.834 206.096C444.585 206.571 445.201 207.231 445.623 208.013C446.934 208.599 446.774 205.602 448.081 205.008C448.67 204.866 449.291 204.947 449.823 205.235C452.704 206.202 455.759 204.751 458.614 203.712C463.558 201.918 468.855 201.312 474.077 201.945C477.546 202.368 481.048 203.394 483.749 205.612C485.882 207.545 487.617 209.877 488.855 212.477C492.187 218.707 494.697 225.58 494.629 232.648C494.561 238.433 492.782 244.069 489.515 248.844C487.813 251.321 482.316 259.915 478.662 258.969C474.071 257.783 479.314 250.844 473.819 248.688Z" fill="#2F2E41"/>
</g>
<defs>
<clipPath id="clip0">
<rect width="545" height="644" fill="white"/>
</clipPath>
</defs>
</svg>
