<svg width="584" height="536" viewBox="0 0 584 536" fill="none" xmlns="http://www.w3.org/2000/svg">
<path d="M40.7855 477.14C31.211 483.73 21.4202 490.532 14.7904 500.078C8.16102 509.624 5.26704 522.655 10.594 532.984L10.4566 533.627C14.4939 535.046 18.8287 535.401 23.0434 534.659C27.258 533.917 31.2105 532.103 34.5199 529.39C42.9478 522.319 45.5905 510.669 47.7403 499.882L54.1 467.976L40.7855 477.14Z" fill="#F0F0F0"/>
<path d="M50.0073 509.315C43.6204 510.728 37.0762 512.205 31.5996 515.781C26.1232 519.357 21.8573 525.54 22.4498 532.052L22.2419 532.359C24.0471 533.952 26.2323 535.054 28.587 535.558C30.9417 536.062 33.3866 535.951 35.6861 535.237C41.5768 533.331 45.4194 527.815 48.8226 522.644L58.8889 507.351L50.0073 509.315Z" fill="#F0F0F0"/>
<path d="M583.208 28.4829H37.8688C37.6594 28.4822 37.4588 28.3985 37.3109 28.2502C37.1631 28.1019 37.0801 27.9011 37.0801 27.6917C37.0801 27.4823 37.1631 27.2815 37.3109 27.1332C37.4588 26.9849 37.6594 26.9012 37.8688 26.9005H583.208C583.418 26.9012 583.619 26.9849 583.766 27.1332C583.914 27.2815 583.997 27.4823 583.997 27.6917C583.997 27.9011 583.914 28.1019 583.766 28.2502C583.619 28.3985 583.418 28.4822 583.208 28.4829Z" fill="#CACACA"/>
<path d="M55.6837 17.4062C60.4922 17.4062 64.3902 13.5097 64.3902 8.7031C64.3902 3.89651 60.4922 0 55.6837 0C50.8753 0 46.9773 3.89651 46.9773 8.7031C46.9773 13.5097 50.8753 17.4062 55.6837 17.4062Z" fill="#3F3D56"/>
<path d="M85.7604 17.4062C90.5688 17.4062 94.4668 13.5097 94.4668 8.7031C94.4668 3.89651 90.5688 0 85.7604 0C80.952 0 77.054 3.89651 77.054 8.7031C77.054 13.5097 80.952 17.4062 85.7604 17.4062Z" fill="#3F3D56"/>
<path d="M115.837 17.4062C120.646 17.4062 124.544 13.5097 124.544 8.7031C124.544 3.89651 120.646 0 115.837 0C111.029 0 107.131 3.89651 107.131 8.7031C107.131 13.5097 111.029 17.4062 115.837 17.4062Z" fill="#3F3D56"/>
<path d="M565.188 5.32341H543.818C543.398 5.32341 542.995 5.15669 542.698 4.85994C542.401 4.56318 542.235 4.16071 542.235 3.74103C542.235 3.32136 542.401 2.91887 542.698 2.62212C542.995 2.32536 543.398 2.15866 543.818 2.15866H565.188C565.608 2.15866 566.01 2.32536 566.307 2.62212C566.604 2.91887 566.771 3.32136 566.771 3.74103C566.771 4.16071 566.604 4.56318 566.307 4.85994C566.01 5.15669 565.608 5.32341 565.188 5.32341Z" fill="#3F3D56"/>
<path d="M565.188 11.2573H543.818C543.398 11.2573 542.995 11.0906 542.698 10.7939C542.401 10.4971 542.235 10.0946 542.235 9.67496C542.235 9.25529 542.401 8.85281 542.698 8.55606C542.995 8.2593 543.398 8.09258 543.818 8.09258H565.188C565.608 8.09258 566.01 8.2593 566.307 8.55606C566.604 8.85281 566.771 9.25529 566.771 9.67496C566.771 10.0946 566.604 10.4971 566.307 10.7939C566.01 11.0906 565.608 11.2573 565.188 11.2573Z" fill="#3F3D56"/>
<path d="M565.188 17.1913H543.818C543.398 17.1913 542.995 17.0246 542.698 16.7278C542.401 16.4311 542.235 16.0286 542.235 15.6089C542.235 15.1892 542.401 14.7867 542.698 14.49C542.995 14.1932 543.398 14.0265 543.818 14.0265H565.188C565.607 14.028 566.008 14.1953 566.304 14.4919C566.599 14.7885 566.766 15.1902 566.766 15.6089C566.766 16.0276 566.599 16.4293 566.304 16.7259C566.008 17.0225 565.607 17.1898 565.188 17.1913Z" fill="#3F3D56"/>
<path d="M408.472 62.4107H46.759V279.197H408.472V62.4107Z" fill="#F0F0F0"/>
<path d="M566.771 62.4107H452.796V130.72H566.771V62.4107Z" fill="#F0F0F0"/>
<path d="M544.032 162.101H476.217C475.37 162.101 474.558 161.764 473.959 161.166C473.36 160.567 473.023 159.755 473.023 158.908C473.023 158.061 473.36 157.249 473.959 156.65C474.558 156.051 475.37 155.715 476.217 155.715H544.032C544.88 155.715 545.692 156.051 546.291 156.65C546.89 157.249 547.227 158.061 547.227 158.908C547.227 159.755 546.89 160.567 546.291 161.166C545.692 161.764 544.88 162.101 544.032 162.101H544.032Z" fill="#E4E4E4"/>
<path d="M533.098 151.171H487.151C486.304 151.171 485.492 150.835 484.893 150.236C484.294 149.637 483.957 148.825 483.957 147.978C483.957 147.131 484.294 146.319 484.893 145.72C485.492 145.121 486.304 144.785 487.151 144.785H533.098C533.946 144.785 534.758 145.121 535.357 145.72C535.956 146.319 536.293 147.131 536.293 147.978C536.293 148.825 535.956 149.637 535.357 150.236C534.758 150.835 533.946 151.171 533.098 151.171Z" fill="#E4E4E4"/>
<path d="M566.771 186.628H452.796V254.937H566.771V186.628Z" fill="#F0F0F0"/>
<path d="M544.032 286.318H476.217C475.37 286.318 474.558 285.981 473.959 285.383C473.36 284.784 473.023 283.972 473.023 283.125C473.023 282.278 473.36 281.466 473.959 280.867C474.558 280.268 475.37 279.932 476.217 279.932H544.032C544.88 279.932 545.692 280.268 546.291 280.867C546.89 281.466 547.227 282.278 547.227 283.125C547.227 283.972 546.89 284.784 546.291 285.383C545.692 285.981 544.88 286.318 544.032 286.318H544.032Z" fill="#E4E4E4"/>
<path d="M533.098 275.388H487.151C486.304 275.388 485.492 275.052 484.893 274.453C484.294 273.854 483.957 273.042 483.957 272.195C483.957 271.348 484.294 270.536 484.893 269.937C485.492 269.338 486.304 269.002 487.151 269.002H533.098C533.945 269.004 534.756 269.341 535.353 269.939C535.951 270.538 536.287 271.349 536.287 272.195C536.287 273.041 535.951 273.852 535.353 274.451C534.756 275.05 533.945 275.387 533.098 275.388Z" fill="#E4E4E4"/>
<path d="M233.901 179.033C248.808 179.033 260.893 166.953 260.893 152.052C260.893 137.15 248.808 125.07 233.901 125.07C218.994 125.07 206.909 137.15 206.909 152.052C206.909 166.953 218.994 179.033 233.901 179.033Z" fill="#9E616A"/>
<path d="M279.379 279.197H211.699L215.497 193.646L215.965 193.155L222.685 186.066H244.055L251.986 193.74L252.611 194.35L269.486 210.513L279.379 279.197Z" fill="#53A9AD"/>
<path d="M230.433 279.197H178.994C178.654 246.458 178.385 221.757 178.385 221.757L181.013 220.158L181.028 220.15L209.878 202.641L215.933 192.807L215.965 193.155L217.746 213.884C217.746 213.884 227.425 245.144 230.433 279.197Z" fill="#2F2E41"/>
<path d="M300.425 279.197H254.653C252.207 268.105 250.933 257.542 251.487 248.736C253.735 212.761 248.551 192.807 250.799 192.807L251.986 193.74L266.106 204.888L284.698 211.701L297.599 216.432L299.847 217.255V218.339C299.855 223.782 299.911 249.061 300.425 279.197Z" fill="#2F2E41"/>
<path d="M208.365 160.493C208.365 160.493 210.659 156.467 210.125 143.018C209.592 129.569 230.08 137.176 247.2 135.893C264.319 134.61 260.695 158.346 260.695 158.346C260.695 158.346 261.931 156.935 264.575 145.479C267.219 134.023 261.215 122.607 261.215 122.607C259.447 110.569 249.917 114.427 249.917 114.427C254.507 116.213 253.625 120.031 253.625 120.031C249.74 113.223 240.211 117.081 240.211 117.081C227.501 109.109 214.62 119.608 214.62 119.608C199.265 123.091 208.27 135.297 208.27 135.297C192.829 143.097 208.365 160.493 208.365 160.493Z" fill="#2F2E41"/>
<path d="M164.09 279.197C165.404 252.937 166.409 232.335 166.013 230.745C164.905 226.322 180.537 220.332 181.012 220.158L181.02 220.15H181.028L184.012 221.757L186.196 279.197H164.09Z" fill="#2F2E41"/>
<path d="M311.189 279.197H287.959L281.311 213.552L284.049 211.55C284.049 211.55 284.287 211.606 284.698 211.701C286.827 212.231 293.698 214.027 297.6 216.432C298.463 216.919 299.226 217.566 299.847 218.339C300.228 218.793 300.418 219.377 300.378 219.968C300.18 221.828 305.245 248.111 311.189 279.197Z" fill="#2F2E41"/>
<path d="M350.297 305.702H104.934C103.99 305.704 103.086 306.079 102.419 306.747C101.753 307.414 101.378 308.319 101.378 309.262C101.378 310.206 101.753 311.11 102.419 311.778C103.086 312.445 103.99 312.821 104.934 312.823H350.297C350.766 312.823 351.229 312.732 351.662 312.553C352.095 312.375 352.488 312.113 352.82 311.782C353.151 311.451 353.414 311.059 353.593 310.626C353.773 310.194 353.865 309.73 353.865 309.262C353.865 308.794 353.773 308.331 353.593 307.898C353.414 307.466 353.151 307.073 352.82 306.743C352.488 306.412 352.095 306.15 351.662 305.971C351.229 305.793 350.766 305.701 350.297 305.702Z" fill="#CACACA"/>
<path d="M283.812 305.702V312.823H104.934C103.99 312.821 103.086 312.445 102.419 311.778C101.753 311.11 101.378 310.206 101.378 309.262C101.378 308.319 101.753 307.414 102.419 306.747C103.086 306.079 103.99 305.704 104.934 305.702H283.812Z" fill="#3F3D56"/>
<path d="M283.812 316.383C287.746 316.383 290.935 313.195 290.935 309.262C290.935 305.33 287.746 302.142 283.812 302.142C279.878 302.142 276.688 305.33 276.688 309.262C276.688 313.195 279.878 316.383 283.812 316.383Z" fill="#3F3D56"/>
<path d="M227.616 368.602C224.707 368.602 221.864 367.74 219.446 366.124C217.028 364.509 215.143 362.214 214.03 359.528C212.917 356.842 212.626 353.886 213.193 351.035C213.761 348.184 215.161 345.565 217.218 343.509C219.274 341.453 221.894 340.053 224.747 339.486C227.599 338.919 230.556 339.21 233.243 340.323C235.93 341.435 238.226 343.319 239.842 345.736C241.458 348.154 242.32 350.995 242.32 353.903C242.316 357.8 240.765 361.536 238.008 364.292C235.252 367.047 231.514 368.597 227.616 368.602ZM227.616 340.334C224.931 340.334 222.307 341.13 220.074 342.621C217.842 344.112 216.103 346.231 215.075 348.71C214.048 351.19 213.779 353.918 214.303 356.55C214.827 359.182 216.119 361.599 218.018 363.497C219.916 365.394 222.334 366.687 224.967 367.21C227.6 367.734 230.33 367.465 232.81 366.438C235.29 365.411 237.41 363.672 238.901 361.441C240.393 359.21 241.189 356.586 241.189 353.903C241.185 350.305 239.754 346.857 237.209 344.313C234.664 341.769 231.214 340.339 227.616 340.334V340.334Z" fill="#65C3C8"/>
<path d="M225.674 361.818C225.524 361.818 225.38 361.758 225.274 361.652C225.168 361.546 225.108 361.402 225.108 361.252V346.553C225.107 346.478 225.121 346.404 225.15 346.335C225.178 346.266 225.219 346.203 225.272 346.15C225.324 346.097 225.387 346.054 225.456 346.026C225.525 345.997 225.599 345.982 225.674 345.982C225.748 345.982 225.823 345.997 225.891 346.026C225.96 346.054 226.023 346.097 226.076 346.15C226.128 346.203 226.17 346.266 226.198 346.335C226.226 346.404 226.24 346.478 226.239 346.553V361.252C226.239 361.402 226.18 361.546 226.074 361.652C225.968 361.758 225.824 361.817 225.674 361.818Z" fill="#65C3C8"/>
<path d="M229.558 361.818C229.408 361.818 229.264 361.758 229.158 361.652C229.052 361.546 228.992 361.402 228.992 361.252V346.553C228.991 346.479 229.005 346.404 229.034 346.335C229.062 346.266 229.103 346.203 229.156 346.15C229.208 346.097 229.271 346.055 229.34 346.026C229.409 345.997 229.483 345.983 229.557 345.983C229.632 345.983 229.706 345.997 229.775 346.026C229.844 346.055 229.907 346.097 229.959 346.15C230.012 346.203 230.053 346.266 230.082 346.335C230.11 346.404 230.124 346.479 230.123 346.553V361.252C230.123 361.402 230.064 361.546 229.957 361.652C229.851 361.758 229.708 361.817 229.558 361.818Z" fill="#65C3C8"/>
<path d="M160.265 353.903C160.265 350.995 161.128 348.154 162.743 345.736C164.359 343.319 166.656 341.435 169.343 340.323C172.029 339.21 174.986 338.919 177.838 339.486C180.691 340.053 183.311 341.453 185.367 343.509C187.424 345.565 188.824 348.184 189.392 351.035C189.959 353.886 189.668 356.842 188.555 359.528C187.442 362.214 185.557 364.509 183.139 366.124C180.721 367.74 177.878 368.602 174.97 368.602C171.071 368.597 167.334 367.047 164.577 364.292C161.82 361.536 160.27 357.8 160.265 353.903ZM161.396 353.903C161.396 356.586 162.192 359.21 163.684 361.441C165.175 363.672 167.295 365.411 169.775 366.438C172.256 367.465 174.985 367.734 177.618 367.21C180.251 366.687 182.669 365.395 184.568 363.497C186.466 361.599 187.759 359.182 188.282 356.55C188.806 353.918 188.537 351.19 187.51 348.71C186.483 346.231 184.743 344.112 182.511 342.621C180.279 341.13 177.654 340.334 174.97 340.334C171.371 340.339 167.921 341.769 165.376 344.313C162.832 346.857 161.4 350.305 161.396 353.903H161.396Z" fill="#3F3D56"/>
<path d="M181.321 358.852C181.425 358.852 181.525 358.818 181.608 358.755C181.69 358.692 181.749 358.603 181.776 358.503C181.803 358.403 181.796 358.297 181.756 358.202C181.716 358.106 181.646 358.026 181.557 357.974L174.502 353.903L181.557 349.831C181.665 349.769 181.744 349.666 181.776 349.546C181.808 349.425 181.791 349.297 181.729 349.189C181.667 349.081 181.564 349.002 181.443 348.97C181.323 348.937 181.194 348.954 181.086 349.017L173.326 353.495C173.254 353.537 173.195 353.596 173.154 353.668C173.113 353.739 173.091 353.82 173.091 353.903C173.091 353.985 173.113 354.066 173.154 354.138C173.195 354.209 173.254 354.269 173.326 354.31L181.086 358.789C181.158 358.83 181.239 358.852 181.321 358.852Z" fill="#3F3D56"/>
<path d="M170.915 360.485C171.04 360.485 171.16 360.435 171.248 360.347C171.336 360.259 171.386 360.139 171.386 360.015V347.791C171.386 347.666 171.336 347.547 171.248 347.458C171.16 347.37 171.04 347.321 170.915 347.321C170.791 347.321 170.671 347.37 170.583 347.458C170.495 347.547 170.445 347.666 170.445 347.791V360.015C170.445 360.139 170.495 360.259 170.583 360.347C170.671 360.435 170.791 360.485 170.915 360.485Z" fill="#3F3D56"/>
<path d="M280.262 368.602C277.353 368.602 274.51 367.74 272.092 366.124C269.674 364.509 267.789 362.214 266.676 359.528C265.563 356.842 265.272 353.886 265.84 351.035C266.407 348.184 267.808 345.565 269.864 343.509C271.92 341.453 274.541 340.053 277.393 339.486C280.245 338.919 283.202 339.21 285.889 340.323C288.576 341.435 290.872 343.319 292.488 345.736C294.104 348.154 294.966 350.995 294.966 353.903C294.962 357.8 293.411 361.536 290.655 364.292C287.898 367.047 284.16 368.597 280.262 368.602ZM280.262 340.334C277.577 340.334 274.953 341.13 272.721 342.621C270.489 344.112 268.749 346.231 267.721 348.71C266.694 351.19 266.425 353.918 266.949 356.55C267.473 359.182 268.766 361.599 270.664 363.497C272.562 365.394 274.981 366.687 277.614 367.21C280.247 367.734 282.976 367.465 285.456 366.438C287.936 365.411 290.056 363.672 291.548 361.441C293.039 359.209 293.835 356.586 293.835 353.903C293.831 350.305 292.4 346.857 289.855 344.313C287.31 341.769 283.86 340.339 280.262 340.334V340.334Z" fill="#3F3D56"/>
<path d="M273.91 358.852C273.807 358.852 273.706 358.818 273.624 358.755C273.542 358.692 273.482 358.603 273.456 358.503C273.429 358.403 273.436 358.297 273.475 358.202C273.515 358.106 273.585 358.026 273.675 357.974L280.729 353.903L273.675 349.831C273.567 349.769 273.489 349.666 273.457 349.546C273.425 349.425 273.442 349.297 273.504 349.19C273.566 349.082 273.668 349.003 273.789 348.971C273.909 348.938 274.037 348.955 274.145 349.017L281.905 353.495C281.977 353.537 282.036 353.596 282.077 353.668C282.119 353.739 282.14 353.82 282.14 353.903C282.14 353.985 282.119 354.066 282.077 354.138C282.036 354.209 281.977 354.269 281.905 354.31L274.145 358.789C274.074 358.83 273.993 358.852 273.91 358.852Z" fill="#3F3D56"/>
<path d="M284.316 360.485C284.191 360.485 284.071 360.435 283.983 360.347C283.895 360.259 283.845 360.139 283.845 360.015V347.791C283.845 347.666 283.895 347.547 283.983 347.458C284.071 347.37 284.191 347.321 284.316 347.321C284.441 347.321 284.56 347.37 284.648 347.458C284.737 347.547 284.786 347.666 284.786 347.791V360.015C284.786 360.139 284.737 360.259 284.648 360.347C284.56 360.435 284.441 360.485 284.316 360.485Z" fill="#3F3D56"/>
<path d="M86.1538 364.981C85.3766 364.203 84.7796 363.264 84.4047 362.23C84.0299 361.196 83.8864 360.092 83.9844 358.997C84.0824 357.901 84.4195 356.841 84.9719 355.89C85.5243 354.939 86.2786 354.12 87.1816 353.492L79.9468 327.756L93.1855 331.981L98.0262 355.773C98.9813 357.359 99.321 359.241 98.9811 361.061C98.6411 362.881 97.6451 364.513 96.1817 365.648C94.7182 366.783 92.8891 367.342 91.0409 367.219C89.1927 367.096 87.4539 366.3 86.1538 364.981Z" fill="#FFB6B6"/>
<path d="M82.6154 236.76L79.8731 233.907C79.8731 233.907 71.3945 239.728 73.1885 257.774C74.5135 271.103 70.3263 276.756 70.7943 315.498L82.6154 350.978L96.288 343.814L86.396 300.035L82.6154 236.76Z" fill="#53A9AD"/>
<path d="M92.8725 524.72H102.676L107.341 486.919L92.8706 486.92L92.8725 524.72Z" fill="#FFB6B6"/>
<path d="M90.3718 521.52L109.679 521.52H109.68C112.943 521.52 116.072 522.816 118.38 525.122C120.687 527.429 121.984 530.557 121.984 533.819V534.219L90.3725 534.22L90.3718 521.52Z" fill="#2F2E41"/>
<path d="M121.464 521.249L131.195 522.442L140.427 485.49L126.066 483.73L121.464 521.249Z" fill="#FFB6B6"/>
<path d="M119.371 517.769L138.535 520.118L138.535 520.118C141.774 520.515 144.723 522.182 146.732 524.752C148.741 527.323 149.647 530.585 149.25 533.823L149.201 534.22L117.825 530.374L119.371 517.769Z" fill="#2F2E41"/>
<path d="M87.791 330.912C87.791 330.912 68.9056 343.814 78.3478 378.736L91.1171 514.291L106.288 514.184L112.714 447.297L117.081 400.207L131.672 448.901L119.67 508.652L137.384 510.516L158.607 441.031L148.372 342.101L87.791 330.912Z" fill="#2F2E41"/>
<path d="M133.359 230.245L123.756 222.524L98.2908 221.476L79.8732 233.907C79.8732 233.907 77.9721 278.17 90.4349 317.599L83.9009 334.069L149.231 342.262L133.359 230.245Z" fill="#53A9AD"/>
<path d="M112.77 212.003C124.834 212.003 134.613 202.227 134.613 190.168C134.613 178.108 124.834 168.333 112.77 168.333C100.706 168.333 90.926 178.108 90.926 190.168C90.926 202.227 100.706 212.003 112.77 212.003Z" fill="#FFB6B6"/>
<path d="M118.499 163.176H113.645C110.263 162.168 106.692 161.964 103.216 162.58C99.7409 163.196 96.4575 164.614 93.6275 166.723C90.7976 168.831 88.4994 171.571 86.9161 174.724C85.3327 177.877 84.508 181.357 84.5076 184.885L76.9474 209.823C76.7294 210.543 76.6829 211.303 76.8116 212.043C76.9403 212.783 77.2406 213.483 77.6885 214.087C78.1364 214.69 78.7195 215.181 79.391 215.518C80.0625 215.856 80.8038 216.032 81.5555 216.032H85.2457C86.7909 213.832 87.465 211.137 87.1374 208.469C87.8236 210.139 88.3044 211.887 88.5694 213.673C88.6549 214.458 88.6387 215.251 88.521 216.032H120.625C120.833 212.884 119.789 209.782 117.722 207.399C120.309 209.982 122.557 212.883 124.412 216.032H125.015C126.292 216.032 127.517 215.525 128.42 214.622C129.323 213.72 129.83 212.496 129.83 211.219V186.772H142.105C142.105 183.674 141.494 180.605 140.308 177.742C139.122 174.88 137.383 172.278 135.191 170.087C132.999 167.896 130.397 166.158 127.533 164.972C124.669 163.786 121.599 163.176 118.499 163.176Z" fill="#2F2E41"/>
<path d="M142.807 363.093C142.03 362.315 141.433 361.376 141.058 360.342C140.683 359.308 140.54 358.204 140.638 357.109C140.736 356.014 141.073 354.953 141.625 354.002C142.178 353.051 142.932 352.232 143.835 351.604L136.6 325.868L149.839 330.094L154.679 353.885C155.635 355.471 155.974 357.353 155.634 359.173C155.294 360.993 154.298 362.625 152.835 363.76C151.372 364.896 149.542 365.455 147.694 365.332C145.846 365.209 144.107 364.412 142.807 363.093Z" fill="#FFB6B6"/>
<path d="M125.078 235.129L133.359 230.245C133.359 230.245 146.384 227.949 147.774 245.296C149.164 262.642 151.167 307.669 151.167 307.669L155.229 345.627L140.154 348.84L122.827 296.933L125.078 235.129Z" fill="#53A9AD"/>
<path d="M201.119 536H0.94422C0.693797 536 0.453645 535.901 0.276569 535.724C0.0994937 535.547 0 535.306 0 535.056C0 534.806 0.0994937 534.566 0.276569 534.389C0.453645 534.212 0.693797 534.112 0.94422 534.112H201.119C201.369 534.112 201.609 534.212 201.786 534.389C201.964 534.566 202.063 534.806 202.063 535.056C202.063 535.306 201.964 535.547 201.786 535.724C201.609 535.901 201.369 536 201.119 536Z" fill="#CACACA"/>
</svg>
